<svg clip-rule="evenodd" stroke-linecap="round" stroke-linejoin="round" stroke-miterlimit="10" viewBox="0 0 388.624 354.651" xmlns="http://www.w3.org/2000/svg"><path d="m342.372 281.09 38.298 9.499.936 9.882c-4.177 1.549-27.425-5.927-36.638-11.242z" fill="#204120"/><path d="m342.688 279.781c-.146-.036-.265.051-.407.063-.107.007-.205-.066-.312-.032-.054.018-.075.071-.125.094-.156.07-.256.19-.375.313-.124.13-.219.24-.281.406-.027.063-.109.088-.126.156-.036.146.051.265.063.407.007.107-.065.205-.031.312.182.572.21.046.187.562-.023.534.338 1.023.5 1.532.21.657.416 1.311.625 1.968.209.654.417 1.316.625 1.969.262.82.395 1.802.907 2.531.296.424 1.197.805 1.624 1.032.226.119.46.227.688.344.235.12.451.226.688.343.425.211 1.102.553 1.531.75 1.273.585 1.948.89 3.25 1.438 6.545 2.751 13.35 5.067 20.25 6.75 1.958.477 3.965.916 5.969 1.156 1.204.144 2.426.239 3.624 0 1.854-.37 1.283-2.662 1.157-4-.039-.412-.086-.838-.125-1.25s-.086-.807-.125-1.219c-.039-.411-.086-.838-.125-1.25-.039-.411-.055-.807-.094-1.218-.108-1.139-.037-2.741-1.094-3.469-.555-.382-1.596-.533-2.218-.688-.343-.085-.689-.165-1.032-.25-.685-.17-1.377-.361-2.062-.531-1.029-.255-2.065-.495-3.094-.75-4.04-1.002-8.054-1.998-12.094-3-3.864-.958-7.73-1.917-11.594-2.875-1.353-.336-2.709-.664-4.062-1-.375-.093-.014-.024-2.312-.594zm1.687 3.188c.349.086.713.163 1.063.25 1.3.322 2.574.646 3.874.969 6.103 1.513 12.211 3.017 18.313 4.531 2.867.711 5.726 1.445 8.594 2.156 1.028.255 2.065.495 3.093.75.032.008.063.024.094.031.009.095.054.187.063.282.039.411.055.838.093 1.25.156 1.646.313 3.29.469 4.937.034.353.061.71.094 1.063-1.261.037-2.505-.028-3.75-.25-1.82-.327-3.621-.741-5.406-1.219-5.589-1.498-11.101-3.341-16.469-5.5-2.148-.865-4.299-1.786-6.375-2.813-.754-.373-1.378-.739-2.063-1.125-.039-.124-.085-.25-.124-.375-.177-.554-.355-1.101-.532-1.656-.348-1.092-.683-2.189-1.031-3.281z"/><path d="m97.3152 270.449c1.1904 7.677 54.5888 66.428 98.2598 78.643 56.19 15.717 102.466-40.693 147.163-58.572 7.844-3.137 22.678-3.197 30.406.667 5.913 2.957 6.853 12.768 10.694 8.056 5.539-6.793 1.606-12.367-20.027-29.85-17.73-14.329-76.48-60.155-89.826-67.992" fill="#26a85d"/><path d="m273.656 200.094c-.332.084-.623.307-.812.625-.378.635-.167 1.466.468 1.843 5.275 3.139 10.204 6.857 15.157 10.469 7.078 5.163 14.088 10.416 21.062 15.719 17.977 13.669 35.884 27.478 53.438 41.688 2.071 1.676 4.147 3.348 6.187 5.062 1.392 1.169 2.762 2.36 4.125 3.562 1.169 1.031 2.338 2.085 3.469 3.157.731.693 1.452 1.404 2.156 2.125 2.323 2.377 5.993 6.145 5.844 9.781-.047 1.136-.515 2.181-1.125 3.125-.384.594-.801 1.224-1.344 1.688-.584.499-.789-.02-1.25-.626-.366-.482-.675-1.02-1-1.531-1.672-2.63-3.409-5.326-6.281-6.781-3.088-1.565-6.619-2.299-10.031-2.719-5.561-.683-11.326-.55-16.813.625-5.12 1.097-9.956 3.548-14.594 5.906-8.918 4.536-17.387 9.946-25.718 15.469-4.855 3.219-9.686 6.455-14.532 9.688-23.383 15.603-49.95 32.501-79.187 31.469-3.96-.14-7.899-.616-11.781-1.407-10.653-2.17-20.677-6.783-30.032-12.219-12.91-7.5-24.825-16.694-36.031-26.531-9.81-8.612-19.239-17.783-27.719-27.719-2.292-2.686-4.539-5.455-6.531-8.374-.8116-1.19-1.8669-2.552-2.156-4-.1504-.724-.8701-1.213-1.5938-1.063-.7236.15-1.1816.87-1.0312 1.594.4347 2.043 1.8238 3.917 3 5.593 1.947 2.776 4.081 5.392 6.281 7.969 8.563 10.034 18.062 19.335 27.969 28.031 11.336 9.952 23.409 19.225 36.469 26.813 9.607 5.582 19.904 10.303 30.843 12.531 4.028.821 8.112 1.324 12.219 1.469 15.473.546 30.492-3.944 44.375-10.469 17.529-8.238 33.41-19.551 49.5-30.218 8.728-5.787 17.53-11.467 26.875-16.219 4.426-2.251 9.049-4.641 13.938-5.688 5.608-1.201 11.588-1.315 17.25-.437 2.674.414 5.38 1.059 7.812 2.281 3.336 1.676 4.452 5.424 6.781 8.063 1.191 1.348 2.862 1.883 4.407.781.896-.639 1.567-1.587 2.156-2.5.486-.753.916-1.582 1.187-2.438 1.69-5.319-2.837-10.32-6.25-13.812-.727-.745-1.462-1.471-2.218-2.188-.849-.805-1.723-1.594-2.594-2.375-1.323-1.184-2.677-2.351-4.031-3.5-1.555-1.319-3.11-2.645-4.688-3.937-7.679-6.287-15.499-12.382-23.312-18.5-10.879-8.518-21.814-16.981-32.813-25.344-7.286-5.54-14.595-11.056-22-16.437-4.725-3.435-9.475-6.947-14.5-9.938-.317-.189-.668-.24-1-.156z"/><path d="m185.671 247.584c8.895-2.846 18.543-5.903 28.918-9.14 30.597-9.548 73.171-18.327 88.312-15.696 2.96.515-2.457-30.317-3.472-34.377-7.111-28.443-17.563-58.616-36.357-81.746-18.491-22.7596-45.087-30.055-72.117-33.9477-25.176-3.6258-52.801.1973-54.283.3597" fill="#fccd10"/><path d="m170.281 69.8125c-11.279-.1782-22.547.5972-33.75 1.9063-.734.0858-1.273.7346-1.187 1.4687s.734 1.2733 1.468 1.1875c14.765-1.7276 29.686-2.5449 44.532-1.4062 8.207.6294 16.386 1.9632 24.437 3.6562 15.684 3.2977 31.194 8.7453 43.938 18.7188 10.413 8.1492 18.289 19.0712 24.812 30.4682 7.784 13.6 13.495 28.28 18.125 43.219 2.036 6.568 3.98 13.237 5.532 19.938.798 3.447 1.367 6.949 1.937 10.437.652 3.99 1.252 8.015 1.719 12.032.262 2.255.478 4.511.562 6.781.03.788.049 1.587 0 2.375-.015.25-.056.475-.094.718-.438-.059-.872-.113-1.312-.156-1.214-.118-2.437-.197-3.656-.218-2.939-.053-5.884.11-8.813.343-8.839.705-17.61 2.169-26.312 3.844-12.821 2.467-25.535 5.53-38.094 9.094-13.049 3.703-25.956 7.964-38.875 12.093-.704.226-1.069.984-.844 1.688s.952 1.069 1.656.844c12.892-4.121 25.792-8.368 38.813-12.063 16.355-4.641 33.003-8.533 49.813-11.125 7.458-1.15 15.061-2.165 22.624-2.031 1.485.026 2.966.115 4.438.313 1.107.148 2.041.317 2.75-.75.778-1.172.62-3.015.594-4.344-.07-3.586-.501-7.168-.969-10.719-.855-6.486-1.846-13.013-3.25-19.406-.711-3.239-1.623-6.428-2.5-9.625-1.495-5.452-3.102-10.882-4.875-16.25-4.967-15.035-11.183-29.75-19.562-43.219-4.579-7.36-9.757-14.517-15.969-20.5938-13.315-13.0231-30.368-20.1434-48.281-24.2812-9.229-2.1318-18.678-3.7129-28.126-4.4375-3.754-.288-7.521-.4406-11.281-.5z"/><path d="m137.338 72.7538c-67.0543 6.9258-91.9272 47.1402-96.4212 54.2112-6.7734 10.658-12.9304 31.376-13.5677 45.517-.8184 18.159-1.6639 60.385 2.6993 73.608 2.5093 7.604 33.4738 15.456 45.6134 19.29 12.2117 3.856 25.4862 7.717 38.9162 4.706 8.205-1.839 32.602-10.189 71.093-22.502" fill="#2980b9"/><path d="m137.188 71.4375c-8.489.9233-16.892 2.3302-25.157 4.5-21.9796 5.7705-42.7071 16.7249-58.656 33.0625-5.6745 5.813-10.8745 12.307-14.875 19.406-1.7234 3.058-3.1735 6.271-4.4688 9.532-3.6523 9.193-6.3047 18.989-7.5312 28.812-.5603 4.488-.6376 9.015-.7812 13.531-.1741 5.469-.2945 10.935-.3438 16.407-.114 12.644-.0774 25.379 1.25 37.968.3147 2.985.6858 5.976 1.3438 8.906.5271 2.349 1.039 4.172 2.8124 5.876 3.2566 3.127 8.0613 5.11 12.1876 6.781 6.657 2.695 13.5323 4.812 20.4062 6.875 3.9595 1.188 7.9294 2.328 11.875 3.562 10.0455 3.142 20.3622 6.166 31 5.813 6.188-.206 12.004-1.865 17.875-3.657 4.54-1.385 9.076-2.855 13.594-4.312 16.13-5.201 32.234-10.488 48.375-15.656.704-.226 1.069-.953.844-1.656-.226-.704-.984-1.101-1.688-.876-16.143 5.169-32.243 10.455-48.375 15.657-4.832 1.558-9.671 3.093-14.531 4.562-5.321 1.609-10.585 3.096-16.188 3.281-10.3293.343-20.3415-2.669-30.0935-5.718-3.9555-1.237-7.9369-2.372-11.9063-3.563-7.1619-2.149-14.3445-4.363-21.25-7.25-3.4627-1.447-7.5318-3.149-10.2812-5.781-1.5434-1.477-1.8444-3.536-2.25-5.562-.5946-2.972-.9643-5.986-1.25-9-1.1944-12.606-1.2085-25.351-1.0625-38 .0617-5.344.1939-10.659.375-16 .1342-3.958.2273-7.942.7187-11.876 1.269-10.156 4.096-20.547 8.0938-29.968 4.4485-10.483 11.3512-19.619 19.4062-27.625 14.9341-14.8441 34.1138-24.8971 54.3128-30.469 8.684-2.3955 17.552-3.933 26.5-4.9062.735-.08 1.267-.7653 1.187-1.5-.08-.7348-.734-1.2362-1.468-1.1563z"/><path d="m260.873 226.589c2.627-.757-30.538-94.408-46.998-119.731-8.01-12.3232-18.962-27.5617-33.642-32.6996-14.183-4.964-30.598-2.1403-40.031-1.258-10.72 1.0026-29.02 9.9272-36.706 18.011-18.2338 19.1776-15.9449 55.3446-12.6181 83.5906 2.0588 17.479 6.9538 96.506 6.9538 96.506s6.6213 1.288 14.8683-.237c10.609-1.963 65.309-20.13 71.866-22.456 27.616-9.797 73.68-20.97 76.307-21.726z" fill="#e74c3c"/><path d="m163.656 69.9688c-6.131-.1709-12.327.3748-18.344 1.0312-2.989.3261-6.022.5322-8.968 1.1562-5.632 1.1926-11.063 3.3813-16.219 5.9063-6.232 3.0516-12.772 6.8739-17.594 11.9375-11.6864 12.272-14.6908 30.542-15.1872 46.844-.2732 8.968.2069 17.946 1.0312 26.875.4828 5.23 1.1616 10.427 1.6562 15.656 1.4012 14.809 2.3599 29.661 3.375 44.5.8312 12.15 1.6319 24.315 2.4063 36.469.1772 2.781.357 5.562.5313 8.344.0535.854-.1617 2.925.8437 3.5.3637.207.895.227 1.2813.281.5913.083 1.1866.133 1.7812.187 2.235.203 4.478.244 6.719.125 5.548-.294 10.816-1.777 16.125-3.312 5.574-1.612 11.119-3.357 16.656-5.094 11.943-3.747 23.844-7.605 35.719-11.563 6.234-2.077 12.403-4.291 18.656-6.312 7.377-2.385 14.825-4.596 22.281-6.719 9.96-2.835 19.975-5.501 30-8.093 3.385-.876.005-.014 14.844-3.813.095-.027.135-.111.219-.156.061-.032.13-.021.187-.063.37-.352.219-.153.375-.344.011-.013-.01-.048 0-.062.682-.919.101-3.056-.125-4.031-.888-3.835-2.115-7.628-3.312-11.375-5.199-16.264-11.147-32.282-17.344-48.188-3.869-9.931-7.869-19.803-12.156-29.562-3.633-8.27-7.381-16.579-11.906-24.406-2.815-4.869-6.048-9.526-9.407-14.0318-6.839-9.1737-15.231-18.2386-26.156-22.4062-5.772-2.2021-11.838-3.1104-17.969-3.2812zm-3.437 2.6874c9.116-.0833 18.43 1.2256 26.343 6 7.079 4.2706 12.837 10.5047 17.844 17 5.857 7.5968 10.862 15.6068 15.125 24.1878 5.347 10.762 10.017 21.867 14.531 33 5.109 12.599 9.975 25.295 14.563 38.094 2.84 7.921 5.585 15.872 8.094 23.906.867 2.776 1.744 5.549 2.437 8.375.163.662.322 1.328.438 2 .015.089.026.203.031.312-.006.002-.055.029-.063.031-.509.132-1.021.246-1.531.376-1.405.356-2.813.705-4.219 1.062-3.765.957-7.521 1.926-11.281 2.906-11.753 3.065-23.474 6.282-35.125 9.719-5.353 1.579-10.699 3.19-16 4.937-5.611 1.85-11.175 3.851-16.781 5.719-12.81 4.269-25.67 8.425-38.563 12.438-5.046 1.57-10.103 3.146-15.187 4.593-2.769.789-5.565 1.62-8.406 2.126-4.355.774-8.964.957-13.3752.312-.0079-.126-.0234-.249-.0313-.375-.0634-1.014-.1236-2.049-.1875-3.063-.1683-2.672-.3292-5.327-.5-8-.6198-9.695-1.2519-19.4-1.9062-29.093-1.1091-16.429-2.1697-32.884-3.6876-49.281-.5092-5.502-1.2107-10.967-1.7187-16.469-.8142-8.82-1.3323-17.704-1.0625-26.563.4461-14.648 2.9107-30.928 12.375-42.6872 4.166-5.1763 9.807-8.8856 15.594-12.0313 5.272-2.8661 10.847-5.3293 16.656-6.875 3.603-.9586 7.273-1.2218 10.969-1.625 4.859-.5301 9.733-.9866 14.625-1.0313z"/><path d="m137.656 71.5c-1.249.1465-1.408.1745-1.25.1562.112-.0129.453.0027.344.0313-.259.0681-.546.1169-.812.0937-.159-.0137.006.0061-.782.0313-.738.0247-1.306.6363-1.281 1.375s.636 1.306 1.375 1.2813c1.456-.1697 1.618-.1735 1.469-.1563-.19.0219-.753.1155-.563.125.337.0168.673-.0123 1-.0937.146-.0363-.007-.0266 1-.2188.726-.1392 1.202-.8366 1.063-1.5625s-.837-1.2017-1.563-1.0625z"/><path d="m126.721 31.2659c-6.277.215-66.7229 2.1277-102.4556 17.4009-5.117 2.1872-30.01104 17.442-20.61458 24.5086 4.74491 3.5684 23.73278-3.8539 30.32478-6.3847 18.2272-6.9979 30.5351-11.0332 49.1299-16.9448 11.9135-3.7875 33.6425-8.9978 46.4795-11.5407" fill="#2ecc71"/><path d="m126.688 29.9375c-19.245.6561-38.5245 2.3625-57.5318 5.4687-15.0153 2.454-30.1819 5.7163-44.2812 11.5626-5.1044 2.1165-9.8542 5.2685-14.2188 8.625-2.72904 2.0987-5.37935 4.3906-7.5312 7.0937-2.142089 2.6908-4.13877 6.5469-1.96875 9.8125.45106.6788 1.04206 1.2572 1.6875 1.75 2.7591 2.1065 7.92265 1.1075 11.03125.4375 7.8549-1.693 15.3248-4.649 22.8125-7.5 11.5195-4.3861 23.1825-8.4457 34.9063-12.25 5.5777-1.8099 11.1457-3.6575 16.7812-5.2813 13.66-3.9357 27.533-7.2335 41.469-10.0312.724-.1455 1.208-.8691 1.062-1.5938-.145-.7246-.869-1.1767-1.594-1.0312-1.277-2.1949-1.484-3.046-1.281-2.1875.197.8282.128 1.8134-.375 2.5-.35.4779-1.138.254-1.718.375-1.173.2446-2.551.5277-3.719.7813-6.25 1.3567-12.451 2.8286-18.657 4.375-5.9114 1.4732-11.816 3.0104-17.6558 4.75-5.0731 1.5111-10.1215 3.1787-15.1562 4.8124-8.2047 2.6624-16.3603 5.4003-24.4688 8.3438-5.6788 2.0615-11.3077 4.2668-16.9687 6.375-1.8224.6787-3.6576 1.3459-5.5 1.9688-1.5007.5073-3.0126.9863-4.5313 1.4374-.9534.2833-2.0678.5936-3.0312.8438-1.1647.3025-1.7662.4662-2.9375.7188-.6827.1471-1.3728.2658-2.0625.375-2.58863.4098-7.61886 1.1286-8.3125-2.5313-.49467-2.6101 2.25468-5.7122 3.875-7.4063 4.2132-4.4047 9.4931-7.9564 14.7813-10.9687 3.5602-2.028 7.4166-3.4181 11.2812-4.75 4.9947-1.7214 10.0905-3.1731 15.2188-4.4375 16.9934-4.1897 34.4278-6.5345 51.8437-8.0938 6.7315-.6026 13.4995-1.0792 20.2505-1.4062 1.6-.0775 3.18-.1593 4.781-.2188.442-.0164.901-.016 1.343-.0312.083-.0028.199-.0647.25 0 .551.6897.007-.024.219-.0312.739-.0252 1.307-.6364 1.281-1.375-.025-.7387-.636-1.3065-1.374-1.2813z"/><path d="m133.042 37.766c30.42-11.4172 60.746-10.6064 92.395-12.8754 8.88-.6366 25.461-.9867 29.298-6.4759 7.126-10.19704-17.928-12.59504-24.517-13.12659-33.055-2.66686-67.069 10.02899-96.741 24.35159" fill="#2ecc71"/><path d="m224.031 3.625c-31.914-.77187-62.791 11.2789-91.125 24.8125-.667.3186-.943 1.1143-.625 1.7813.319.6669 1.115.9435 1.781.625-.736 2.8312-.953 3.6488-.75 2.8437.301-1.1884.986-2.2766 1.688-3.2813.197-.2823.595-.289.906-.4374.311-.1485.627-.3203.938-.4688 1.246-.5953 2.498-1.1668 3.75-1.75 4.749-2.2125 9.557-4.2975 14.406-6.2812 21.502-8.7963 44.537-15.55401 67.969-15.18755 4.909.07678 9.796.48027 14.656 1.1875 3.482.50679 7.004 1.15213 10.344 2.28125.485.16401.899.3108 1.375.5 2.304.9168 6.219 2.7764 5.094 5.9062-.965 2.6834-3.647 3.8033-6.188 4.5938-3.945 1.2271-8.151 1.6946-12.25 2.0625-3.166.2842-6.329.4469-9.5.6563-15.301 1.0101-30.667 1.4913-45.938 2.9062-12.309 1.1405-24.556 3.0067-36.468 6.375-2.906.8215-5.808 1.7195-8.656 2.7188-.32.1122-.619.2291-.938.3437-.321.1152-.804.6423-.969.3437-.401-.7271.013-.0056-.937.3438-.694.255-1.068 1.025-.813 1.7188.255.6937 1.025 1.0674 1.719.8124 12.215-4.4896 24.882-7.2926 37.781-8.9374 16.034-2.0446 32.199-2.4176 48.313-3.4688 4.095-.2671 8.218-.5358 12.312-.8125 4.397-.2972 8.796-.6431 13.125-1.5 3.513-.6953 8.072-1.8 10.469-4.7187.621-.7556 1.14-1.6417 1.469-2.5626 1.603-4.4951-2.235-7.38963-5.875-8.9687-3.618-1.56902-7.564-2.36817-11.438-3-5.15-.8401-10.408-1.31132-15.625-1.4375z"/><g stroke="#000" stroke-linejoin="round"><path d="m130.039 65.7881c-.69-4.3931 1.944-8.4555 5.883-9.0735 3.938-.618 7.69 2.4423 8.379 6.8355.417 2.6553-.381 5.1899-1.947 6.916-1.024 1.1296-2.378 1.9129-3.936 2.1574-3.938.618-7.69-2.4423-8.379-6.8354z" fill="#2980b9" stroke-linecap="butt" stroke-width="2.67657"/><path d="m125.229 35.1228c-.918-5.8517.869-10.9927 3.991-11.4826 3.123-.49 6.398 3.8566 7.317 9.7083.555 3.5371.121 6.8144-.998 8.9619-.732 1.4054-1.758 2.3269-2.993 2.5207-3.123.49-6.398-3.8566-7.317-9.7083z" fill="#2980b9" stroke-linecap="butt" stroke-width="2.67657"/><path d="m121.243 21.0851c-.578-3.6839 1.941-7.139 5.625-7.7171 3.684-.5782 7.14 1.9395 7.718 5.6234.349 2.2267-.433 4.3698-1.919 5.8446-.973.965-2.248 1.6438-3.706 1.8725-3.684.5782-7.14-1.9395-7.718-5.6234z" fill="#fccd10" stroke-linecap="butt" stroke-width="2.67657"/><path d="m127.452 51.5813c-.689-4.3931 1.945-8.4554 5.883-9.0734 3.939-.618 7.691 2.4423 8.38 6.8354.417 2.6554-.381 5.1899-1.947 6.916-1.025 1.1296-2.378 1.913-3.936 2.1575-3.939.618-7.69-2.4424-8.38-6.8355z" fill="#fccd10" stroke-linecap="butt" stroke-width="2.67657"/><g fill="none" stroke-dasharray="4" stroke-linecap="round" stroke-opacity=".2" stroke-width="1.67657"><path d="m138.731 75.1711s-32.096 10.7916-38.603 29.7179c-6.5067 18.927-5.264 46.343-4.1295 53.304 1.1345 6.96 8.1975 105.566 7.6325 111.108"/><path d="m140.312 74.8142s29.512-2.8532 39.686 2.6067 32.668 27.3731 47.496 66.7651c14.829 39.391 12.233 30.51 27.829 77.717"/><path d="m189.413 75.4629s11.82 2.4616 26.498 27.6601c14.678 25.199 22.421 38.934 48.609 118.472"/><path d="m197.007 76.8336s10.724 2.5008 21.726 6.1687c10.752 3.5846 36.65 12.6758 52.634 44.9167 18.102 36.51 24.836 62.703 28.016 90.064"/><path d="m114.818 79.3775s-20.4706 6.7925-26.193 30.7985-4.69 41.577-1.3287 72.142 5.7286 82.457 5.7286 82.457"/><path d="m103.1 83.4205s-33.1613 14.3202-45.4383 30.0755c-12.2769 15.756-22.7929 28.976-25.4427 60.255-2.6497 31.28 1.9705 69.612 1.9705 69.612"/><path d="m112.887 276.806s28.563 32.151 54.452 47.728c25.888 15.578 41.315 20.733 63.362 15.825 22.046-4.909 45.133-19.109 51.184-25.003 6.05-5.895 44.167-32.765 59.114-35.659 26.695-5.171 31.944.985 31.944.985"/></g></g></svg>